<?xml version="1.0" encoding="UTF-8"?> <svg xmlns="http://www.w3.org/2000/svg" viewBox="0 0 1000 1000"><defs><style> .cls-1 { opacity: .49; } .cls-1, .cls-2, .cls-3, .cls-4, .cls-5, .cls-6, .cls-7, .cls-8, .cls-9, .cls-10 { stroke-width: 0px; } .cls-1, .cls-2, .cls-7, .cls-8, .cls-10 { fill: #fff; } .cls-2 { opacity: .41; } .cls-3 { opacity: .25; } .cls-5 { fill: #ffb000; } .cls-6 { fill: #d18100; } .cls-7 { opacity: .31; } .cls-8 { opacity: .34; } .cls-11 { fill: none; stroke: #000; stroke-miterlimit: 10; stroke-width: 5px; } .cls-9 { fill: #ffc200; } .cls-10 { opacity: .56; } </style></defs><g id="_Шар_3" data-name="Шар 3"><circle class="cls-5" cx="507" cy="465" r="429"></circle><ellipse class="cls-6" cx="511" cy="461.5" rx="340" ry="342.5"></ellipse><path class="cls-9" d="M834.99,383.68c-7.09-72.32-39.09-94.62-75.19-100.13-36.11-5.5-44.98,12.25-44.98,12.25,0,0-53.89-28.06-110.19-23.02-56.3,5.04-96.17,31.43-96.17,31.43,0,0-32.23-25.81-95.18-30.81-62.95-5.01-111.16,23.38-111.16,23.38,0,0-5.26-4.17-6.62-7.38-1.37-3.21-16.39-9.22-34.02-6.52-17.62,2.7-44.54,6.18-62.83,35.95-18.29,29.77-24.33,82.12-15.45,133.62,8.88,51.5,38.37,103.02,38.37,103.02l6.91,38.17-1.47,3.03c.15.9.27,1.8.44,2.7.34-.14.7-.22,1.05-.22,1.73.02,2.73,1.35,2.93,2.93,1.08,8.31,3.73,16.44,7.52,23.9,6.98,13.72,18.06,24.15,28.51,35.21,3.54,3.74,7.27,7.44,11.46,10.48,1.75.05,3.62.78,5.19,1.34,2.96,1.06,5.85,2.3,8.73,3.54,5.95,2.55,11.74,5.06,18.02,6.67,2.25.58,4.52,1.07,6.8,1.5,10.06.37,20.12-.74,30.18-.89,2.81-1.03,5.6-2.07,8.39-3,5.66-3.19,11.25-6.5,16.65-10.11,1.43-1.56,2.88-3.11,4.41-4.55,1.55-1.45,3.18-2.81,4.75-4.24.51-.46,1.01-.93,1.51-1.4,1.33-4.9,3.87-9.38,6.75-13.55.74-1.66,1.45-3.33,2.04-5.03.22-.64.41-1.3.59-1.97.26-3.89-.17-7.83-.79-11.66-.84-5.2-2-10.4-3.83-15.35-.56-1.53-1.22-3.08-2.05-4.51-1.34-.37-2.31-1.68-2.34-2.96-.01,0-.02-.01-.03-.02-.12-.07-.23-.15-.34-.24-.33-.21-.51-.23-1.07-.33-3.65-.64-2.18-6.09,1.37-5.67.55-.78,1.48-1.3,2.43-1.3,5.17,0,10.52-.25,15.51,1.03,7.23-.64,14.88-.45,21.14-.9,10.67-.76,17.79-1.26,28.42,0,5.73.68,11.41.08,16.91,1.81,5.44,1.71,10.92,3.61,16.63,4.1,3.4.29,6.72-.04,10.11-.21,3.3-.16,6.6-.06,9.9.2,6.5.5,12.94,1.54,19.46,1.77,13.02.47,24.53-6.26,37.25-7.81.34-.04.66.02.97.13,6.7-1.06,13.49-.47,20.22.3,6.82.78,13.54,1.32,20.4,1.42,5.48.08,10.96.18,16.43-.18,4.23-.28,10.17-.49,13.67-3.23,2.94-2.3,7.12,1.82,4.15,4.15-.94.73-1.94,1.34-2.98,1.85,0,.34-.04.7-.19,1.09-.96,2.52-2.5,4.47-4.22,6.53-1.6,1.91-2.82,4.12-3.74,6.44-1.94,4.9-2.88,10.3-3.58,15.5-.04.29-.07.58-.11.88,1.37,6.28,3.34,12.43,6.11,18.23,4.12,8.62,9.85,16.43,17.11,22.54.03.01.05.02.08.03,3.99,2.2,7.93,4.49,11.93,6.69.75-.18,1.57-.08,2.28.26.13.07.27.13.4.19.04.01.11.04.23.09.36.12.72.25,1.09.35.73.21,1.47.36,2.22.48.13.02.27.04.4.06.04,0,.11.01.23.03.28.03.57.06.85.09.76.08,1.52.14,2.28.21,3.33.31,6.55.82,9.53,2.43.76.41,1.2,1.13,1.35,1.91,2.76.33,5.55.45,8.37.32,6.49-.29,12.84-1.86,18.96-3.99,5.75-2,11.29-4.53,16.79-7.15,5.49-2.62,11.01-5.23,16.23-8.36,8.36-5.02,15.82-11.29,22.13-18.73,6.73-7.94,12.56-17.18,16.99-26.59,4.11-8.74,6.57-18.12,9.65-27.26l-.62-1.7,4.86-28.68,3.73-13.15s21.41-40.06,24.28-47.83c2.87-7.78,21.99-47.28,14.9-119.6Z"></path><path class="cls-1" d="M300.7,391.81s17.33,39.83,94.65,46.68c0,0,38.25,1.52,80.87-28.67,42.62-30.19-10.96-31.06-10.96-31.06,0,0-54.75-8.01-100.93-4.46-46.18,3.55-67.46,17.51-67.46,17.51,0,0,4.13-.25,3.83,0Z"></path><path class="cls-1" d="M522.46,386.87c-.07,6.97,25.42,44.13,88.15,51.3,62.74,7.17,113.68-45.69,104.19-52.11-9.49-6.42-59.71-20.58-114.52-14.39-54.81,6.19-77.83,15.2-77.83,15.2Z"></path><path class="cls-3" d="M290.89,378.76s4.69-9.63,17.76-19.48c0,0,29.05-50.69,103.64-38.26,74.59,12.43,73.62,38.01,73.62,38.01,0,0,8.07,4.62,15.17,9.95,7.1,5.33,6.22,12.3,6.22,12.3,0,0,1.02-12.19,15.16-19.35,14.14-7.16,6.04-1.26,6.54-3.32.5-2.06,7.6-16.27,34.24-26.92s46.18-19.54,90.57-7.1c44.4,12.43,54.47,38.38,54.47,38.38,0,0,8.68,6.86,11.74,9.99s4.98,10.16,4.98,10.16c0,0,8.73-19.46-30.34-53.2-39.07-33.74-108.6-23.71-143.1-10.08-34.5,13.63-62.91,13.63-82.45,4.75-19.54-8.88-71.04-30.19-127.87,0s-50.35,54.19-50.35,54.19Z"></path><path class="cls-3" d="M296.46,405.95s10.4,74.95,105.74,74.04,98-88.18,98-88.18l-5.33-.16-.63,4.15s5.96,23.79-56.2,46.87-115.15-7.9-125.95-18.16c-10.8-10.26-15.63-18.57-15.63-18.57Z"></path><path class="cls-3" d="M720.42,405.95s-10.4,74.95-105.74,74.04-98-88.18-98-88.18l5.33-.16.63,4.15s-5.96,23.79,56.2,46.87c62.16,23.09,115.15-7.9,125.95-18.16,10.8-10.26,15.63-18.57,15.63-18.57Z"></path><path class="cls-3" d="M819.9,328.09c-13.32-29.27-31.29-41.99-56.05-43.62-24.76-1.63-35.46,1.24-45.21,7.8-9.74,6.56-5.23,4.51-5.23,4.51l23.01,18.92c-1.78-10.66,7.1-40.85,49.73-7.1,42.62,33.74,49.73,152.73,17.76,206.01s-16.52,71.19-45.55,117.29c-29.04,46.1-105.4,51.43-119.61,19.46-14.21-31.97,12.43-60.38,28.42-69.26,15.98-8.88,58.78-13.62,62.69-46.33,3.91-32.7-4.97-43.36,7.46-77.1,12.43-33.74,1.78-49.73,1.78-49.73,0,0,7.1,12.43-14.21,42.62s-10.66,49.73-14.21,69.26c-3.55,19.54-12.43,1.78-12.43,1.78,0,0,1.78,40.85-24.86,40.85s-55.06-19.54-108.33-28.42c-32.67-5.45-49.3-5.87-57.29-5.38-7.99-.49-24.61-.07-57.29,5.38-53.28,8.88-81.69,28.42-108.33,28.42s-24.86-40.85-24.86-40.85c0,0-8.88,17.76-12.43-1.78-3.55-19.54,7.1-39.07-14.21-69.26s-14.21-42.62-14.21-42.62c0,0-10.66,15.98,1.78,49.73,12.43,33.74,3.55,44.4,7.46,77.1,3.91,32.7,46.71,37.45,62.69,46.33,15.98,8.88,42.62,37.3,28.42,69.26-14.21,31.97-90.57,26.64-119.61-19.46-29.04-46.1-13.59-64.01-45.55-117.29s-24.86-172.27,17.76-206.01c42.62-33.74,51.5-3.55,49.73,7.1l23.01-18.92s4.51,2.05-5.23-4.51c-9.74-6.56-20.45-9.43-45.21-7.8-24.76,1.63-42.73,14.36-56.05,43.62-13.32,29.27-22.2,95.05-10.56,140.86,11.64,45.81,34.54,82.06,34.65,82.16.11.1,9.57,45.76,9.64,46.1-.45,0-1.17,0-2.25.01.12.71.21,1.43.35,2.14.34-.14.7-.22,1.05-.22,1.73.02,2.73,1.35,2.93,2.93,1.08,8.31,3.73,16.44,7.52,23.9,6.98,13.72,18.06,24.15,28.51,35.21,3.54,3.74,7.27,7.44,11.46,10.48,1.75.05,3.62.78,5.19,1.34,2.96,1.06,5.85,2.3,8.73,3.54,5.95,2.55,11.74,5.06,18.02,6.67,2.25.58,4.52,1.07,6.8,1.5,10.06.37,20.12-.74,30.18-.89,2.81-1.03,5.6-2.07,8.39-3,5.66-3.19,11.25-6.5,16.65-10.11,1.43-1.56,2.88-3.11,4.41-4.55,1.55-1.45,3.18-2.81,4.75-4.24.51-.46,1.01-.93,1.51-1.4,1.33-4.9,3.87-9.38,6.75-13.55.74-1.66,1.45-3.33,2.04-5.03.22-.64.41-1.3.59-1.97.26-3.89-.17-7.83-.79-11.66-.84-5.2-2-10.4-3.83-15.35-.56-1.53-1.22-3.08-2.05-4.51-1.34-.37-2.31-1.68-2.34-2.96-.63-.47-.71-.45-1.44-.58-3.72-.65-2.13-6.3,1.56-5.66.26.05.5.13.74.2.14-.07.27-.15.42-.2,2.78-.95,5.9-.6,8.71.03.32.07.64.16.96.25,2.14-.65,4.32-1.19,6.52-1.66-5.28-.12-10.73-.32-16.24-.64-29.79-1.74-21.71-21.35-21.71-23.13s17.76-8.88,66.15-23.4c33.09-9.93,58.92-10.28,72.52-9.52.21.58.47.95.78.95.36,0,2.04-.25,4.87-.52,2.83.27,4.51.52,4.87.52.31,0,.56-.37.78-.95,13.59-.77,39.42-.42,72.52,9.52,48.39,14.52,66.15,21.63,66.15,23.4,0,1.62,6.74,18.14-14.85,22.3,1.33.99,1.89,2.84.24,4.13-.94.73-1.94,1.34-2.98,1.85,0,.34-.04.7-.19,1.09-.96,2.52-2.5,4.47-4.22,6.53-1.6,1.91-2.82,4.12-3.74,6.44-1.94,4.9-2.88,10.3-3.58,15.5-.04.29-.07.58-.11.88,1.37,6.28,3.34,12.43,6.11,18.23,4.12,8.62,9.85,16.43,17.11,22.54.03.01.05.02.08.03,3.99,2.2,7.93,4.49,11.93,6.69.75-.18,1.57-.08,2.28.26.13.07.27.13.4.19.04.01.11.04.23.09.36.12.72.25,1.09.35.73.21,1.47.36,2.22.48.13.02.27.04.4.06.04,0,.11.01.23.03.28.03.57.06.85.09.76.08,1.52.14,2.28.21,3.33.31,6.55.82,9.53,2.43.76.41,1.2,1.13,1.35,1.91,2.76.33,5.55.45,8.37.32,6.49-.29,12.84-1.86,18.96-3.99,5.75-2,11.29-4.53,16.79-7.15,5.49-2.62,11.01-5.23,16.23-8.36,8.36-5.02,15.82-11.29,22.13-18.73,6.73-7.94,12.56-17.18,16.99-26.59,3.73-7.92,6.1-16.36,8.81-24.68-.33,0-.61,0-.82,0,.07-.34,9.53-46,9.64-46.1.11-.1,23.01-36.35,34.65-82.16,11.64-45.81,2.76-111.59-10.56-140.86Z"></path><path class="cls-3" d="M582.81,598.37c6.82.78,13.54,1.32,20.4,1.42,5.48.08,10.96.18,16.43-.18,3.83-.25,9.03-.47,12.58-2.53-.61.05-1.22.11-1.86.15-29.79,1.74-57.76.04-66.87,0-9.1-.04-26.12,3.89-34.48,6.36-8.36,2.48-13.91-.3-13.91-.3l-8.14.88c5.8.53,11.58,1.37,17.41,1.58,13.02.47,24.53-6.26,37.25-7.81.34-.04.66.02.97.13,6.7-1.06,13.49-.47,20.22.3Z"></path><path class="cls-3" d="M484.9,603.99c1.2.1,2.39.11,3.57.1-.64-.14-1.29-.29-1.97-.49-5.82-1.73-15.84-4.15-24.46-5.45,2.08.52,4.15,1.09,6.22,1.75,5.44,1.71,10.92,3.61,16.63,4.1Z"></path><path class="cls-6" d="M93.72,352.96c.28,3.04-36.72,128.04,18.28,265.04s134,201,277,256,314.88-17,380.94-70c66.06-53,99.7-117.22,99.7-117.22,0,0,14.47-14.03,13.91-10.9-.55,3.12-39.55,100.12-162.55,181.12s-311.65,81.33-439.33-2.84c-127.67-84.16-166.2-156.68-183.94-218.92-17.74-62.24-36.26-136.58-24.5-199.41,11.76-62.83,20.49-82.87,20.49-82.87Z"></path><path class="cls-7" d="M911.36,300.16c-.93-2.33-1.89-4.64-2.84-6.96-.03-.07-.05-.13-.08-.2-.02-.05-.04-.1-.07-.16-.63-1.43-1.23-2.87-1.86-4.3-4.44-10.17-8.9-20.37-14.37-30.04-16.28-28.74-38.89-53.19-57.38-80.41-2.65-2.8-5.31-5.6-7.96-8.41-4.54-4.81-9.09-9.62-13.36-14.67-25.03,10.89-56.03,24.75-90.95,40.61,3.55,2.41,7.01,4.96,10.36,7.64,7.13,4.9,14.07,10.03,20.44,15.91,8.47,7.83,15.49,17.33,20.3,27.82,9.3,11.3,17.66,23.43,25.19,36.04,12.33,8.79,21.31,21.49,27.64,35.78,5.42,12.25,9.54,24.92,12.88,37.82,30.94-15.62,57.67-29.1,78.45-39.57-2.03-5.67-4.16-11.3-6.4-16.89Z"></path><path class="cls-7" d="M206.82,627.33c-.14-.22-.33-.42-.47-.65-.27-.45-.54-.91-.81-1.37-.18-.3-.28-.65-.44-.96-.29-.55-28.58-67.61-28.71-68.05-.15-.51-.34-1.01-.48-1.53-1.53-5.61-3.95-23.42-5.46-35.95-2.06-13.62-5.12-36.2-5.04-42.24,0-.69.05-1.37.08-2.06.07-1.53.75-7.37,1.74-15.19-44.22,22.3-71.63,37.09-72.24,39.66-3.86,16.22-5.92,31.56-6.59,45.99,6.85,21.28,11.85,43.1,17.14,64.82,1.9,7.8,3.87,15.58,5.98,23.32,1.38.91,2.61,1.98,3.62,3.24,13.21,16.49,22.45,34.96,31.08,53.8,2.04,3.04,4.14,6.18,6.12,9.4,7.04-2.59,36.59-16.79,80.53-38.43-12.17-15.76-25.91-33.56-26.07-33.81Z"></path><path class="cls-10" d="M856.22,418.12c2.04,12.52,2.71,25.37,1.99,38.17,33.89-17.41,62.62-32.02,83.93-42.62-1.28-10.12-2.55-20.23-3.36-30.36-.19-2.39-.22-4.99-.6-7.42-.14-.56-.28-1.2-.35-1.65-.23-1.51-.47-3.02-.73-4.52-.63-3.62-1.34-7.23-2.12-10.82-20.34,10.51-48.22,25.18-81.45,42.81.92,5.47,1.81,10.95,2.71,16.41Z"></path><path class="cls-10" d="M272.34,713.37c-29.27,16.11-55.78,30.77-78.42,43.39,4.04,3.77,8.13,7.49,12.24,11.19,6.68,5.2,13.09,10.71,19.1,16.71,22.32-11.77,49.12-25.89,79.08-41.66-11.94-8.35-22.57-18.44-31.99-29.63Z"></path><path class="cls-7" d="M632.78,137.48c37.36-17.41,70.27-32.77,96.24-44.93-14.82-4.2-29.06-9.62-39.33-20.91-27.39,12.17-67.04,30.29-113.53,51.76,19.49,2.46,38.57,6.5,56.62,14.08Z"></path><path class="cls-7" d="M188.54,338.26c3.56-13.36,8.71-26.3,15.03-38.68.45-.88.92-1.75,1.39-2.63-42.8,20.15-81.16,38.24-111.48,52.55-3.13,12.76-7.42,25.17-11.37,37.68-.88,2.79-1.74,5.59-2.56,8.39,28.17-13.3,63.79-29.99,103.96-48.78,1.17-3.24,2.86-6.13,5.04-8.53Z"></path><path class="cls-2" d="M317,361c-26,7-20.24,22.59-18.12,20.29s20.8-5.02,64.46-11.16c43.66-6.14,126.66,14.65,136.66,17.26s-7.65-27.39-59.33-26.39-49.8,5.21-44.24-15.9c5.57-21.1,8.57-18.1,5.57-21.1s-19.21,2.51-24.11,22.26-39,20.02-57.45,23.88-3.45-9.14-3.45-9.14Z"></path><path class="cls-2" d="M613.31,321.59c-13.31,14.41-.73,29.32-13.02,31.36-12.29,2.04-58.17,10.96-71.23,20-13.06,9.04-6.29-6.61-3.18-10.79,3.12-4.17-21.28,9.38-18.58,19.1s3.89,10.98,5.3,7.35c1.4-3.63,1.4-6.63,59.4-16.63s101.16,2.53,123.58,6.76c22.42,4.24,29.83,8.63,29.83,8.63,0,0-7.26-34.83-11.92-19.57-2.5,8.18-94.99.98-97.24-8.92s-2.94-37.31-2.94-37.31Z"></path><path class="cls-8" d="M779.26,323.24c-21.15-12.8-39.85,9.97-14.55,21.87,25.3,11.9,23.33,89.9.81,154.9s30.48,17,39.48-50-10.49-117.53-25.74-126.76Z"></path><path class="cls-8" d="M732.53,591.84c-42.53,9.16-72.53,57.16-37.53,47.16s37.53-47.16,37.53-47.16Z"></path><path class="cls-8" d="M249.12,312.36c-27.12,28.64-38.66,78.58-22.89,141.11,15.77,62.53,33.77,91.53,41.77,130.53s70.49,81.48,80.75,51.24c10.25-30.24-26.41-9.52-58.08-70.88s-47.1-126.23-49.88-168.8c-2.79-42.56,8.34-83.2,8.34-83.2Z"></path></g><g id="_Шар_2" data-name="Шар 2"><path class="cls-4" d="M278.41,320.08c20.72-26.17,53.56-37.55,85.54-42.27,9.1-1.34,18.27-2.21,27.44-2.89,9.16-.69,18.21.04,27.35.63,13.78.88,27.03,3.39,40.15,7.75,16.91,5.62,33.11,13.65,47.52,24.17,1.85,1.35,3.62-1.73,1.79-3.07-13.05-9.52-27.57-16.96-42.72-22.54-13.23-4.88-27.17-8.49-41.27-9.53-8.95-.66-18.03-1.51-27.01-1.29-9.17.22-18.42,1.29-27.51,2.44-17.51,2.2-34.93,5.85-51.22,12.81-16.36,6.98-31.47,17.27-42.58,31.29-1.4,1.77,1.09,4.3,2.51,2.51h0Z"></path><path class="cls-4" d="M300.77,294.02c-4.57-5.72-10.66-9.83-17.71-11.83-7.54-2.14-15.33-1.79-23.04-.93-9.14,1.02-18.39,2.44-27,5.77-6.46,2.5-12.36,6.14-17.61,10.65-10.89,9.35-18.64,21.98-24.22,35.07-6.33,14.84-10.09,30.64-11.98,46.64-2.29,19.32-1.8,38.86-.11,58.2,1.5,17.1,3.9,34,9,50.44,3.91,12.62,9.15,24.78,15.25,36.49,4.43,8.5,9.46,16.69,13.75,25.26,1.49,2.98,2.9,6.04,3.75,9.28.55,2.12.7,4.24.96,6.42.49,4.04,1.05,8.07,1.69,12.09,2.28,14.08,5.64,28.08,11.01,41.33,8.04,19.79,20.8,37.01,38.81,48.77,8.37,5.47,17.53,9.66,26.92,13.04,5.64,2.03,11.45,4.07,17.36,5.13,9.09,1.63,18.3.91,27.31-.89s16.07-5.26,23.36-10.04c6.42-4.2,12.64-9.26,16.71-15.86,3.19-5.17,5.46-11.29,7.2-17.07,2.17-7.24,1.63-14.57-.54-21.78-4.8-15.92-16.85-28.36-30.46-37.34-13.86-9.15-30.08-13.67-44.21-22.29-7.05-4.3-14.13-10.17-18.73-17.11-5.14-7.75-4.67-17.18-3.83-26.05,1.77-18.81,3.39-37.88-3.76-55.85-1.6-4.02-3.47-7.91-5.49-11.73-2.02-3.81-5.05-7.78-4.83-12.27.11-2.28-3.44-2.28-3.55,0-.21,4.15,1.84,7.71,3.78,11.23,2.17,3.93,4.24,7.93,6,12.07,3.7,8.73,5.52,17.91,5.87,27.37.34,9.24-.51,18.46-1.41,27.65-.81,8.29-1.52,17.05,1.79,24.92,3.05,7.25,9.48,13.37,15.58,18.15,6.14,4.81,13.11,8.38,20.18,11.61,14.88,6.79,29.83,12.91,42.06,24.13,6.05,5.56,11.27,11.83,14.83,19.28,3.24,6.78,5.8,15.38,4.36,22.95-1.13,5.97-3.59,11.86-6.23,17.32-3.34,6.91-9.09,12.14-15.33,16.44-6.9,4.76-14.11,8.6-22.34,10.45-9.06,2.04-18.58,2.95-27.76,1.23-5.76-1.08-11.44-3.06-16.95-5.05-4.54-1.64-9.02-3.47-13.37-5.56-17.96-8.64-32.77-21.81-42.75-39.13-6.1-10.59-10.37-22.12-13.5-33.9-1.87-7.04-3.35-14.18-4.52-21.36-.69-4.19-1.27-8.39-1.77-12.6-.25-2.09-.4-4.19-.9-6.24-1.73-7.05-5.73-13.57-9.23-19.85-5.27-9.44-10.52-18.89-14.97-28.76-5.84-12.96-10.29-26.53-13.2-40.45-3.72-17.78-5.15-36.27-5.64-54.41-.86-32.49,3.36-67.06,20.5-95.37,7.17-11.85,16.96-22.41,29.74-28.19,8.12-3.68,17.17-5.28,25.96-6.36,7.78-.95,15.69-1.72,23.39.19,7,1.74,12.86,5.62,17.35,11.24,1.43,1.79,3.92-.74,2.51-2.51h0Z"></path><path class="cls-4" d="M293.37,385.97c-4.31-7.44,3.66-15.18,9.45-18.65,6.88-4.13,15.35-7.96,23.51-5.94,2.22.55,3.17-2.87.94-3.43-9.63-2.39-19.91,2.05-27.85,7.3-6.98,4.61-14.08,13.95-9.12,22.5,1.15,1.98,4.22.19,3.07-1.79h0Z"></path><path class="cls-4" d="M308.93,362.64c3.55-8.5,12.14-15.08,19.54-20.08,6.98-4.72,14.48-8.9,22.21-12.26,7.15-3.11,15.28-4.91,23.02-6.28,24.54-4.33,51.01-3.49,74.29,6,15.31,6.25,28.62,16.61,38.24,30.07,1.32,1.84,4.4.07,3.07-1.79-8.92-12.48-20.73-22.51-34.56-29.15-12.7-6.09-26.55-9.37-40.55-10.58-12.59-1.09-25.3-.49-37.79,1.42-8.75,1.34-17.65,3.22-25.89,6.55-8.12,3.28-15.96,7.68-23.23,12.54-8.51,5.68-17.72,12.9-21.77,22.61-.88,2.11,2.55,3.03,3.43.94h0Z"></path><path class="cls-4" d="M481.89,360.38c3.94.07,7.4,1.37,10.75,3.37,2.93,1.75,5.76,3.7,8.12,6.19,4.02,4.24,6.66,11.57,2.34,16.58-1.49,1.72,1.01,4.25,2.51,2.51,5.27-6.11,3.43-14.82-1.4-20.56-2.64-3.13-6.08-5.56-9.56-7.66-3.95-2.38-8.11-3.91-12.76-3.99-2.29-.04-2.29,3.51,0,3.55h0Z"></path><path class="cls-4" d="M298.99,392.13c2.24,6.39,8.24,11.76,13.16,16.1,8.77,7.74,18.75,14.15,29.28,19.21,28.89,13.89,61.98,16.82,92.54,6.65,23.68-7.88,44.43-22.54,62.16-39.88,1.64-1.6-.88-4.11-2.51-2.51-15.76,15.41-33.93,28.76-54.58,36.8-15.84,6.17-32.81,9.04-49.8,8.04-25.91-1.53-51.62-11.9-71.67-28.34-3.73-3.06-7.3-6.34-10.46-9.99-1.11-1.28-2.09-2.51-3.02-3.91-.69-1.04-1.45-2.46-1.67-3.1-.75-2.14-4.18-1.22-3.43.94h0Z"></path><path class="cls-4" d="M295.32,393.71c.42-.21.84-.39,1.26-.6.97-.47-1.19.45-.44.18.34-.12.68-.27,1.02-.4,1.39-.53,2.81-1.01,4.23-1.47,3.78-1.2,7.62-2.22,11.47-3.16,5.13-1.25,10.3-2.33,15.49-3.29,3.04-.57,6.09-1.09,9.14-1.58,1.49-.24,2.97-.47,4.46-.69.81-.12,1.62-.24,2.42-.35.36-.05.73-.1,1.09-.15,0,0,1.7-.23.79-.11,31.63-4.26,63.99-5.02,95.7-1.14,19.35,2.37,38.54,6.77,56.82,13.59,2.7,1.01,5.84-1.12,6.55-3.72.82-2.98-1.02-5.54-3.72-6.55-33.25-12.4-69.29-16.7-104.63-16.43-28.02.22-56.33,3.13-83.67,9.38-7.82,1.79-16.17,3.61-23.37,7.29-2.56,1.31-3.31,4.91-1.91,7.29,1.52,2.6,4.72,3.23,7.29,1.91h0Z"></path><path class="cls-4" d="M295.16,391.34c-1.66,8.46,1.91,16.2,6.79,22.92,4.47,6.16,10,11.43,16.17,15.86,14.17,10.17,31.33,15.59,48.44,18.15,17.83,2.67,36.15,3.48,54.01.74,16.27-2.49,31.75-8.7,45.54-17.64,7.58-4.91,14.67-10.61,21.14-16.9,5.61-5.45,12.53-13.8,6.35-21.5-1.43-1.78-3.93.75-2.51,2.51,5.33,6.63-4.4,14.71-8.72,18.73-5.52,5.12-11.44,9.78-17.74,13.89-12.61,8.22-26.63,14.15-41.45,16.88-16.25,2.99-33.09,2.62-49.44.69-16.34-1.93-32.65-5.91-46.99-14.21-7-4.05-13.42-9.1-18.72-15.22-5.63-6.5-11.21-14.96-9.45-23.96.44-2.23-2.99-3.19-3.43-.94h0Z"></path><path class="cls-4" d="M293.71,389.1c1.75,24.65,6.81,52.23,28.85,67.03,1.9,1.28,3.68-1.8,1.79-3.07-20.87-14.02-25.43-40.71-27.09-63.97-.16-2.27-3.71-2.28-3.55,0h0Z"></path><path class="cls-4" d="M498.7,392.94c-4.5,20.88-9.68,43.7-27.35,57.61-1.8,1.41.73,3.91,2.51,2.51,18.14-14.27,23.65-37.74,28.27-59.18.48-2.23-2.94-3.18-3.43-.94h0Z"></path><path class="cls-4" d="M310.76,545.76c-1.15,5.85.24,11.89,3.86,16.63,3.91,5.13,9.79,7.53,16.08,8.13,7.25.68,14.81-.61,21.84-2.28s14.4-4.22,21.38-6.93c14.44-5.61,28.53-11.93,43.56-15.9,15.62-4.12,31.65-6.4,47.71-7.98,9.04-.89,18.1-1.56,27.16-2.22,9.42-.68,18.86-1.39,28.29-.53,2.28.21,2.26-3.35,0-3.55-7.99-.73-16-.34-23.99.22-7.71.54-15.41,1.11-23.11,1.76-15.03,1.29-30.05,2.99-44.83,6.03-14.79,3.04-28.86,7.83-42.81,13.53-13.27,5.42-26.63,11.11-40.85,13.47-7.52,1.25-16.63,2.23-23.43-2.02-5.73-3.59-8.74-10.82-7.45-17.42.44-2.23-2.98-3.19-3.43-.94h0Z"></path><path class="cls-4" d="M337.93,548.33c5.06-2.67,10.49-4.68,15.85-6.66,9.12-3.36,18.38-6.31,27.71-9.01,26.23-7.59,53.12-13.17,80.25-16.3,17.48-2.02,35.08-3,52.67-2.64,2.29.05,2.29-3.51,0-3.55-30.68-.63-61.39,2.78-91.46,8.75-22.93,4.56-45.68,10.54-67.69,18.44-6.46,2.32-13.04,4.7-19.13,7.9-2.02,1.07-.23,4.13,1.79,3.07h0Z"></path><path class="cls-4" d="M371.07,594.89c4.69,4.94,13.13,5.2,19.47,5.38,10.44.3,20.89.28,31.33-.06,5.15-.17,10.29-.41,15.43-.73,5.11-.32,10.25-.82,15.37-.44,5.04.37,9.89,1.85,14.79,3.02,4.39,1.05,8.84,1.89,13.31,2.49,9.46,1.27,18.85.72,28.31-.25,2.25-.23,2.28-3.79,0-3.55-8.1.83-16.23,1.47-24.36.71-9.1-.85-17.71-3.62-26.65-5.25-9.6-1.76-19.48-.26-29.14.19-10.14.47-20.29.63-30.44.5-4.66-.06-9.4.01-14.03-.54-3.66-.43-8.21-1.17-10.87-3.97-1.58-1.66-4.09.85-2.51,2.51h0Z"></path><ellipse class="cls-4" cx="488.21" cy="483.97" rx="11.1" ry="9.32" transform="translate(-73.08 880.87) rotate(-80.01)"></ellipse><path class="cls-4" d="M351.9,377.86s-7.1,14.62,0,33.06c7.1,18.44,24.86,27.32,58.61,23.77,33.74-3.55,49.54-34.01,50.52-53.41.98-19.4-109.13-3.42-109.13-3.42ZM408.93,399.61c-1.14.84-2.35,1.55-3.51,2.12-4.16,2.03-8.86,2.43-12.48-.92-.07-.06-.12-.14-.19-.2-2.15-1.15-3.35-3.57-3.42-5.99-.22-1.02-.21-2.07.15-3.04.36-.96.81-1.83,1.31-2.65.82-2.55,2.22-4.91,3.89-6.59,2.85-2.87,6.91-4.23,10.9-3.25,4.64,1.14,8.92,5.57,9.55,10.31.69,5.1-2.17,8.36-6.19,10.22Z"></path><path class="cls-4" d="M739.62,317.57c-21.05-26.59-54.6-38.39-87.1-43.19-9.14-1.35-18.34-2.25-27.55-2.96-9.31-.71-18.48-.07-27.77.54-14.24.93-27.94,3.39-41.52,7.91-17.19,5.72-33.71,13.83-48.37,24.52-1.83,1.33-.06,4.42,1.79,3.07,12.8-9.34,27.01-16.71,41.87-22.18,12.92-4.76,26.55-8.39,40.32-9.41,8.68-.64,17.47-1.44,26.17-1.3,9.03.14,18.14,1.21,27.1,2.3,17.27,2.1,34.6,5.66,50.68,12.48,16.12,6.84,30.93,16.93,41.86,30.74,1.42,1.79,3.92-.74,2.51-2.51h0Z"></path><path class="cls-4" d="M717.25,296.53c4.63-5.8,10.72-9.71,17.96-11.38,7.78-1.8,15.78-.93,23.61.06,8.71,1.11,17.67,2.77,25.68,6.51,6.22,2.9,11.8,6.96,16.67,11.79,10.08,9.99,17.09,22.83,22.07,36.02,5.79,15.34,9,31.56,10.3,47.89,1.5,18.83.61,37.78-1.28,56.55-1.65,16.37-4.57,32.42-9.86,48.04-3.99,11.76-9.16,23.05-15.02,33.99-4.23,7.9-8.97,15.56-12.83,23.65-1.4,2.92-2.71,5.94-3.46,9.1-.52,2.21-.66,4.5-.93,6.75-.51,4.19-1.1,8.37-1.8,12.54-2.26,13.52-5.54,26.95-10.68,39.68-7.76,19.2-20.3,35.97-37.81,47.25-8.1,5.22-16.9,9.25-25.95,12.49-5.63,2.01-11.44,4.03-17.34,5.05-9.17,1.58-18.72.58-27.73-1.55-8.15-1.92-15.34-5.9-22.15-10.68-6.13-4.3-11.64-9.52-14.9-16.36-2.62-5.49-5.18-11.47-6.17-17.51-1.25-7.67,1.42-16.29,4.78-23.1,7.28-14.75,21.22-25.78,35.63-33.12,13.91-7.09,29.34-11.81,41.67-21.68,6.06-4.84,12.34-10.95,15.26-18.27,3.17-7.96,2.3-16.8,1.48-25.12-1.85-18.72-2.81-37.52,4.92-55.15,1.73-3.94,3.72-7.76,5.81-11.52,1.89-3.4,3.78-6.87,3.58-10.88-.11-2.28-3.67-2.29-3.55,0,.23,4.61-2.96,8.73-5.02,12.63-2.08,3.94-3.99,7.97-5.6,12.12-3.41,8.82-4.86,18.16-5.07,27.59-.21,9.47.83,18.87,1.68,28.28.81,8.93,1.04,18.22-4.32,25.89-9.79,14.01-25.87,20.83-40.91,27.51-15.45,6.87-29.93,15.23-40.99,28.3-9.69,11.44-16.06,27.86-11.45,42.68,1.8,5.78,4.07,11.95,7.38,17.06,4.22,6.52,10.48,11.51,16.94,15.67,7.37,4.75,14.89,8.15,23.55,9.8s18.25,2.36,27.34.59c10.59-2.06,21.27-6.31,30.96-10.99,18.47-8.92,33.72-22.69,43.95-40.52,6.23-10.87,10.62-22.75,13.82-34.84,1.96-7.4,3.47-14.91,4.67-22.46.64-4.03,1.19-8.08,1.67-12.14.24-2.02.4-3.95.93-5.91,2.02-7.43,6.41-14.26,10.14-20.92,5.6-10,11-20.09,15.48-30.65,13.34-31.46,17.46-65.92,17.5-99.88.03-32.28-5.51-67.14-24.18-94.29-7.93-11.53-18.5-21.3-31.75-26.26-8.73-3.26-18.04-4.64-27.26-5.64-7.62-.83-15.38-1.05-22.8,1.2-6.81,2.06-12.68,6.1-17.11,11.66-1.41,1.77,1.08,4.3,2.51,2.51h0Z"></path><path class="cls-4" d="M725.21,387.77c4.96-8.56-2.15-17.88-9.12-22.5-7.93-5.26-18.23-9.69-27.85-7.3-2.22.55-1.28,3.98.94,3.43,8.16-2.03,16.63,1.81,23.51,5.94,5.79,3.47,13.76,11.21,9.45,18.65-1.15,1.98,1.92,3.77,3.07,1.79h0Z"></path><path class="cls-4" d="M710,361.7c-3.61-8.63-11.38-15.25-18.82-20.57-7.48-5.35-15.63-9.88-24.01-13.65-7.59-3.41-15.87-5.35-24.03-6.81-25.62-4.59-53.31-3.8-77.55,6.34-15.83,6.63-29.39,17.32-39.37,31.3-1.33,1.86,1.75,3.64,3.07,1.79,8.67-12.13,20.3-21.73,33.77-28.1,12.12-5.73,25.45-8.8,38.78-9.9,12.02-1,24.21-.51,36.13,1.3,8.54,1.3,17.16,3.13,25.23,6.25,7.15,2.76,14.28,6.79,20.82,10.94,4.43,2.81,8.72,5.87,12.6,9.4s7.9,7.75,9.95,12.66c.87,2.08,4.31,1.17,3.43-.94h0Z"></path><path class="cls-4" d="M533.62,356.83c-4.65.08-8.81,1.61-12.76,3.99-3.48,2.1-6.93,4.52-9.56,7.66-4.82,5.75-6.68,14.44-1.4,20.56,1.5,1.73,4-.79,2.51-2.51-4.33-5.01-1.68-12.34,2.34-16.58,2.3-2.43,5.06-4.34,7.9-6.06,3.42-2.06,6.93-3.43,10.97-3.5,2.28-.04,2.29-3.59,0-3.55h0Z"></path><path class="cls-4" d="M713.1,391.18c-.18.52-.79,1.71-1.37,2.64-.78,1.24-1.63,2.36-2.54,3.46-2.56,3.08-5.44,5.9-8.45,8.54-8.46,7.44-18.11,13.56-28.24,18.45-27.9,13.46-59.86,16.25-89.41,6.59-23.34-7.63-43.75-22.12-61.19-39.16-1.64-1.6-4.15.91-2.51,2.51,16.15,15.79,34.72,29.31,55.85,37.59,16.27,6.38,33.85,9.34,51.31,8.27,26.93-1.65,53.4-12.43,74.18-29.58,3.75-3.1,7.35-6.43,10.51-10.14,2.09-2.45,4.21-5.13,5.29-8.21.76-2.16-2.67-3.09-3.43-.94h0Z"></path><path class="cls-4" d="M725.57,384.51c-6.11-3.13-13.09-4.81-19.71-6.42-11.64-2.84-23.47-4.88-35.34-6.48-32.2-4.33-65.03-5.25-97.32-1.27-20.21,2.5-40.19,6.8-59.3,13.93-2.69,1.01-4.53,3.6-3.72,6.55.71,2.59,3.84,4.73,6.55,3.72,32.34-12.07,67.09-16.29,101.46-16.05,15.37.11,30.73,1.11,45.98,2.95,3.7.45,5.52.69,9.12,1.22,3.18.47,6.36.98,9.52,1.53,5.48.95,10.94,2.02,16.36,3.26,4.66,1.06,9.31,2.23,13.88,3.64,1.61.5,3.22,1.02,4.8,1.61.33.12.65.25.98.37,1.04.4.29.39-.22-.1.33.33,1.15.52,1.58.74,2.56,1.31,5.78.67,7.29-1.91,1.39-2.38.66-5.97-1.91-7.29h0Z"></path><path class="cls-4" d="M716.93,392.28c1.58,8.06-2.78,15.56-7.57,21.69-4.5,5.74-10.02,10.65-16.08,14.69-13.49,8.99-29.34,13.8-45.26,16.18-16.27,2.44-33.06,3.22-49.41,1.12-15.26-1.96-29.83-7.13-43.06-14.97-7.21-4.27-13.98-9.25-20.24-14.82-4.69-4.17-16.72-13.43-10.88-20.69,1.42-1.77-1.08-4.29-2.51-2.51-5.33,6.63-.74,14.32,4.29,19.46,5.54,5.66,11.63,10.82,18.07,15.44,13.15,9.43,28.14,16.54,44.01,19.93,17.78,3.79,36.32,3.53,54.29,1.34,17.4-2.12,34.74-6.46,49.81-15.69,7.44-4.56,14.23-10.26,19.63-17.14s10.18-15.6,8.34-24.97c-.44-2.24-3.86-1.29-3.43.94h0Z"></path><path class="cls-4" d="M718.25,389.1c-1.65,23.25-6.22,49.94-27.09,63.97-1.89,1.27-.11,4.35,1.79,3.07,22.04-14.81,27.09-42.38,28.85-67.03.16-2.28-3.39-2.27-3.55,0h0Z"></path><path class="cls-4" d="M513.39,393.88c4.62,21.43,10.13,44.91,28.27,59.18,1.78,1.4,4.31-1.1,2.51-2.51-17.68-13.91-22.85-36.73-27.35-57.61-.48-2.23-3.91-1.29-3.43.94h0Z"></path><path class="cls-4" d="M701.33,546.71c1.69,10.53-8.29,21.2-18.83,21.17-7.05-.02-14.45-1.96-21.2-3.83-6.78-1.88-13.43-4.22-20.02-6.69-13.51-5.05-26.96-10.29-40.77-14.47-13.88-4.2-28.16-6.85-42.55-8.59-16.46-1.99-33.03-2.78-49.59-3.52-2.29-.1-2.28,3.45,0,3.55,30.95,1.39,62.18,3.08,91.99,12.23,14.3,4.39,28.19,9.9,42.22,15.06,6.97,2.57,14.02,4.96,21.23,6.76,3.71.93,7.47,1.7,11.26,2.25,3.13.45,6.37,1.03,9.53.63,12.17-1.55,22.15-13.14,20.17-25.51-.36-2.25-3.78-1.3-3.43.94h0Z"></path><path class="cls-4" d="M679.38,545.27c-5.26-2.77-10.89-4.91-16.44-7.01-9.26-3.5-18.67-6.61-28.15-9.46-25.67-7.71-51.99-13.51-78.62-16.64-16.21-1.91-32.56-2.76-48.87-1.99-2.28.11-2.29,3.66,0,3.55,28.52-1.35,57.14,2.14,85.02,7.95,22.46,4.68,44.7,10.86,66.25,18.74,6.42,2.35,12.95,4.73,19.01,7.92,2.02,1.07,3.82-2,1.79-3.07h0Z"></path><path class="cls-4" d="M643.58,591.92c-3.86,1.3-7.67,2.78-11.61,3.82-4.33,1.14-8.73,1.04-13.18,1.11-10,.17-20.01.04-30-.38s-19.42-1.99-28.93-.67c-8.8,1.22-17.27,4.18-26.11,5.34-8.83,1.15-17.63.5-26.45-.41-2.27-.23-2.26,3.32,0,3.55,7.9.81,15.82,1.48,23.75.71,8.78-.85,17.15-3.26,25.74-5.06,9.65-2.03,19.61-.48,29.35-.02,9.99.47,20,.65,30,.53,4.88-.06,9.96.22,14.75-.79s9.12-2.79,13.63-4.31c2.16-.73,1.23-4.16-.94-3.43h0Z"></path><ellipse class="cls-4" cx="527.3" cy="483.97" rx="9.32" ry="11.1" transform="translate(-75.93 98.76) rotate(-9.99)"></ellipse><path class="cls-4" d="M554.48,381.28c.98,19.4,16.78,49.86,50.52,53.41,33.74,3.55,51.5-5.33,58.61-23.77,7.1-18.44,0-33.06,0-33.06,0,0-110.11-15.98-109.13,3.42ZM600.4,389.39c.64-4.74,4.91-9.17,9.55-10.31,3.98-.98,8.04.39,10.9,3.25,1.67,1.68,3.08,4.04,3.89,6.59.5.82.95,1.69,1.31,2.65.36.97.36,2.02.15,3.04-.07,2.42-1.27,4.84-3.42,5.99-.07.07-.12.14-.19.2-3.62,3.35-8.32,2.95-12.48.92-1.16-.57-2.37-1.28-3.51-2.12-4.02-1.86-6.88-5.12-6.19-10.22Z"></path><circle class="cls-11" cx="509.5" cy="462" r="429"></circle><path class="cls-11" d="M888.33,666c-68.37,146.21-216.77,247.5-388.83,247.5-236.93,0-429-192.07-429-429,0-62.72,13.46-122.3,37.65-176"></path><circle class="cls-11" cx="509.5" cy="462" r="342"></circle></g></svg> 